<?xml version="1.0" encoding="UTF-8"?>
<svg width="680" height="170" viewBox="0 0 680 170" xmlns="http://www.w3.org/2000/svg">
  <rect width="680" height="170" rx="12" fill="#0f0b1a"/>
  <ellipse cx="340" cy="85" rx="280" ry="90" fill="#6d28d9" opacity="0.07"/>
  <ellipse cx="340" cy="85" rx="160" ry="52" fill="#7c3aed" opacity="0.07"/>
  <ellipse cx="90" cy="38" rx="100" ry="52" fill="#6d28d9" opacity="0.07"/>
  <ellipse cx="600" cy="142" rx="95" ry="48" fill="#6d28d9" opacity="0.07"/>
  <circle cx="20"  cy="20" r="0.85" fill="#a78bfa" opacity="0.25"/>
  <circle cx="60"  cy="20" r="0.85" fill="#a78bfa" opacity="0.25"/>
  <circle cx="100" cy="20" r="0.85" fill="#a78bfa" opacity="0.25"/>
  <circle cx="140" cy="20" r="0.85" fill="#a78bfa" opacity="0.25"/>
  <circle cx="180" cy="20" r="0.85" fill="#a78bfa" opacity="0.25"/>
  <circle cx="220" cy="20" r="0.85" fill="#a78bfa" opacity="0.25"/>
  <circle cx="260" cy="20" r="0.85" fill="#a78bfa" opacity="0.25"/>
  <circle cx="300" cy="20" r="0.85" fill="#a78bfa" opacity="0.25"/>
  <circle cx="340" cy="20" r="0.85" fill="#a78bfa" opacity="0.25"/>
  <circle cx="380" cy="20" r="0.85" fill="#a78bfa" opacity="0.25"/>
  <circle cx="420" cy="20" r="0.85" fill="#a78bfa" opacity="0.25"/>
  <circle cx="460" cy="20" r="0.85" fill="#a78bfa" opacity="0.25"/>
  <circle cx="500" cy="20" r="0.85" fill="#a78bfa" opacity="0.25"/>
  <circle cx="540" cy="20" r="0.85" fill="#a78bfa" opacity="0.25"/>
  <circle cx="580" cy="20" r="0.85" fill="#a78bfa" opacity="0.25"/>
  <circle cx="620" cy="20" r="0.85" fill="#a78bfa" opacity="0.25"/>
  <circle cx="660" cy="20" r="0.85" fill="#a78bfa" opacity="0.25"/>
  <circle cx="20"  cy="55" r="0.85" fill="#a78bfa" opacity="0.16"/>
  <circle cx="60"  cy="55" r="0.85" fill="#a78bfa" opacity="0.16"/>
  <circle cx="100" cy="55" r="0.85" fill="#a78bfa" opacity="0.16"/>
  <circle cx="140" cy="55" r="0.85" fill="#a78bfa" opacity="0.16"/>
  <circle cx="180" cy="55" r="0.85" fill="#a78bfa" opacity="0.16"/>
  <circle cx="220" cy="55" r="0.85" fill="#a78bfa" opacity="0.16"/>
  <circle cx="260" cy="55" r="0.85" fill="#a78bfa" opacity="0.16"/>
  <circle cx="300" cy="55" r="0.85" fill="#a78bfa" opacity="0.16"/>
  <circle cx="340" cy="55" r="0.85" fill="#a78bfa" opacity="0.16"/>
  <circle cx="380" cy="55" r="0.85" fill="#a78bfa" opacity="0.16"/>
  <circle cx="420" cy="55" r="0.85" fill="#a78bfa" opacity="0.16"/>
  <circle cx="460" cy="55" r="0.85" fill="#a78bfa" opacity="0.16"/>
  <circle cx="500" cy="55" r="0.85" fill="#a78bfa" opacity="0.16"/>
  <circle cx="540" cy="55" r="0.85" fill="#a78bfa" opacity="0.16"/>
  <circle cx="580" cy="55" r="0.85" fill="#a78bfa" opacity="0.16"/>
  <circle cx="620" cy="55" r="0.85" fill="#a78bfa" opacity="0.16"/>
  <circle cx="660" cy="55" r="0.85" fill="#a78bfa" opacity="0.16"/>
  <circle cx="20"  cy="118" r="0.85" fill="#a78bfa" opacity="0.16"/>
  <circle cx="60"  cy="118" r="0.85" fill="#a78bfa" opacity="0.16"/>
  <circle cx="100" cy="118" r="0.85" fill="#a78bfa" opacity="0.16"/>
  <circle cx="140" cy="118" r="0.85" fill="#a78bfa" opacity="0.16"/>
  <circle cx="180" cy="118" r="0.85" fill="#a78bfa" opacity="0.16"/>
  <circle cx="220" cy="118" r="0.85" fill="#a78bfa" opacity="0.16"/>
  <circle cx="260" cy="118" r="0.85" fill="#a78bfa" opacity="0.16"/>
  <circle cx="300" cy="118" r="0.85" fill="#a78bfa" opacity="0.16"/>
  <circle cx="340" cy="118" r="0.85" fill="#a78bfa" opacity="0.16"/>
  <circle cx="380" cy="118" r="0.85" fill="#a78bfa" opacity="0.16"/>
  <circle cx="420" cy="118" r="0.85" fill="#a78bfa" opacity="0.16"/>
  <circle cx="460" cy="118" r="0.85" fill="#a78bfa" opacity="0.16"/>
  <circle cx="500" cy="118" r="0.85" fill="#a78bfa" opacity="0.16"/>
  <circle cx="540" cy="118" r="0.85" fill="#a78bfa" opacity="0.16"/>
  <circle cx="580" cy="118" r="0.85" fill="#a78bfa" opacity="0.16"/>
  <circle cx="620" cy="118" r="0.85" fill="#a78bfa" opacity="0.16"/>
  <circle cx="660" cy="118" r="0.85" fill="#a78bfa" opacity="0.16"/>
  <circle cx="20"  cy="153" r="0.85" fill="#a78bfa" opacity="0.25"/>
  <circle cx="60"  cy="153" r="0.85" fill="#a78bfa" opacity="0.25"/>
  <circle cx="100" cy="153" r="0.85" fill="#a78bfa" opacity="0.25"/>
  <circle cx="140" cy="153" r="0.85" fill="#a78bfa" opacity="0.25"/>
  <circle cx="180" cy="153" r="0.85" fill="#a78bfa" opacity="0.25"/>
  <circle cx="220" cy="153" r="0.85" fill="#a78bfa" opacity="0.25"/>
  <circle cx="260" cy="153" r="0.85" fill="#a78bfa" opacity="0.25"/>
  <circle cx="300" cy="153" r="0.85" fill="#a78bfa" opacity="0.25"/>
  <circle cx="340" cy="153" r="0.85" fill="#a78bfa" opacity="0.25"/>
  <circle cx="380" cy="153" r="0.85" fill="#a78bfa" opacity="0.25"/>
  <circle cx="420" cy="153" r="0.85" fill="#a78bfa" opacity="0.25"/>
  <circle cx="460" cy="153" r="0.85" fill="#a78bfa" opacity="0.25"/>
  <circle cx="500" cy="153" r="0.85" fill="#a78bfa" opacity="0.25"/>
  <circle cx="540" cy="153" r="0.85" fill="#a78bfa" opacity="0.25"/>
  <circle cx="580" cy="153" r="0.85" fill="#a78bfa" opacity="0.25"/>
  <circle cx="620" cy="153" r="0.85" fill="#a78bfa" opacity="0.25"/>
  <circle cx="660" cy="153" r="0.85" fill="#a78bfa" opacity="0.25"/>
  <rect x="0" y="0" width="680" height="2" rx="1" fill="#a78bfa" opacity="0.85"/>
  <path d="M16 24 L16 10 L30 10" stroke="#a78bfa" stroke-opacity="0.55" stroke-width="1.5" fill="none" stroke-linecap="round"/>
  <path d="M664 24 L664 10 L650 10" stroke="#a78bfa" stroke-opacity="0.55" stroke-width="1.5" fill="none" stroke-linecap="round"/>
  <path d="M16 146 L16 160 L30 160" stroke="#a78bfa" stroke-opacity="0.55" stroke-width="1.5" fill="none" stroke-linecap="round"/>
  <path d="M664 146 L664 160 L650 160" stroke="#a78bfa" stroke-opacity="0.55" stroke-width="1.5" fill="none" stroke-linecap="round"/>
  <text x="340" y="91" text-anchor="middle" font-family="monospace" font-size="40" font-weight="700" letter-spacing="3" fill="#ede9fe">NguyenHien</text>
  <line x1="230" y1="105" x2="450" y2="105" stroke="#7c3aed" stroke-opacity="0.4" stroke-width="0.75"/>
  <text x="340" y="124" text-anchor="middle" font-family="monospace" font-size="11" letter-spacing="5" fill="#a78bfa">FULL-STACK DEVELOPER</text>
  <text x="340" y="146" text-anchor="middle" font-family="monospace" font-size="10" fill="#7a6e96" letter-spacing="1.5">TypeScript · Java · React · Spring Boot</text>
</svg>
